{
	"asset":{
		"generator":"Khronos glTF Blender I/O v5.1.18",
		"version":"2.0"
	},
	"scene":0,
	"scenes":[
		{
			"name":"Scene",
			"nodes":[
				0,
				1,
				2,
				3,
				4,
				5
			]
		}
	],
	"nodes":[
		{
			"mesh":0,
			"name":"Spiral.001",
			"rotation":[
				0.7071068286895752,
				0,
				0,
				0.7071068286895752
			],
			"scale":[
				1,
				1.3721132278442383,
				1
			],
			"translation":[
				4.308793544769287,
				22.755760192871094,
				53.988037109375
			]
		},
		{
			"mesh":1,
			"name":"Cylinder",
			"scale":[
				3.354740858078003,
				13.758837699890137,
				3.354740858078003
			],
			"translation":[
				0,
				24.720827102661133,
				0
			]
		},
		{
			"mesh":2,
			"name":"Cylinder.001",
			"rotation":[
				0,
				1,
				0,
				0
			],
			"scale":[
				-12.851190567016602,
				-4.750462532043457,
				-12.851190567016602
			],
			"translation":[
				0,
				6.232975482940674,
				0
			]
		},
		{
			"name":"B\u00e9zierCurve"
		},
		{
			"name":"B\u00e9zierCircle",
			"scale":[
				3.9588208198547363,
				3.9588208198547363,
				3.9588208198547363
			],
			"translation":[
				0,
				22.1844539642334,
				0
			]
		},
		{
			"mesh":3,
			"name":"Cylinder.003",
			"scale":[
				1.1202634572982788,
				27.51430892944336,
				1.1202634572982788
			],
			"translation":[
				-34.80027770996094,
				21.31704330444336,
				0.07344794273376465
			]
		}
	],
	"meshes":[
		{
			"name":"Spiral.001",
			"primitives":[
				{
					"attributes":{
						"POSITION":0,
						"NORMAL":1,
						"TEXCOORD_0":2
					},
					"indices":3
				}
			]
		},
		{
			"name":"Cylinder.001",
			"primitives":[
				{
					"attributes":{
						"POSITION":4,
						"NORMAL":5,
						"TEXCOORD_0":6
					},
					"indices":7
				}
			]
		},
		{
			"name":"Cylinder.002",
			"primitives":[
				{
					"attributes":{
						"POSITION":8,
						"NORMAL":9,
						"TEXCOORD_0":10
					},
					"indices":7
				}
			]
		},
		{
			"name":"Cylinder.004",
			"primitives":[
				{
					"attributes":{
						"POSITION":11,
						"NORMAL":12,
						"TEXCOORD_0":13
					},
					"indices":7
				}
			]
		}
	],
	"accessors":[
		{
			"bufferView":0,
			"componentType":5126,
			"count":7514,
			"max":[
				1.0665987730026245,
				14.518830299377441,
				1.0704463720321655
			],
			"min":[
				-1.0733957290649414,
				-14.51883316040039,
				-1.06955087184906
			],
			"type":"VEC3"
		},
		{
			"bufferView":1,
			"componentType":5126,
			"count":7514,
			"type":"VEC3"
		},
		{
			"bufferView":2,
			"componentType":5126,
			"count":7514,
			"type":"VEC2"
		},
		{
			"bufferView":3,
			"componentType":5123,
			"count":41544,
			"type":"SCALAR"
		},
		{
			"bufferView":4,
			"componentType":5126,
			"count":258,
			"max":[
				1,
				1,
				1
			],
			"min":[
				-1,
				-1,
				-1
			],
			"type":"VEC3"
		},
		{
			"bufferView":5,
			"componentType":5126,
			"count":258,
			"type":"VEC3"
		},
		{
			"bufferView":6,
			"componentType":5126,
			"count":258,
			"type":"VEC2"
		},
		{
			"bufferView":7,
			"componentType":5123,
			"count":768,
			"type":"SCALAR"
		},
		{
			"bufferView":8,
			"componentType":5126,
			"count":258,
			"max":[
				1,
				1,
				1
			],
			"min":[
				-1,
				-1,
				-1
			],
			"type":"VEC3"
		},
		{
			"bufferView":9,
			"componentType":5126,
			"count":258,
			"type":"VEC3"
		},
		{
			"bufferView":10,
			"componentType":5126,
			"count":258,
			"type":"VEC2"
		},
		{
			"bufferView":11,
			"componentType":5126,
			"count":258,
			"max":[
				1,
				1,
				1
			],
			"min":[
				-1,
				-1,
				-1
			],
			"type":"VEC3"
		},
		{
			"bufferView":12,
			"componentType":5126,
			"count":258,
			"type":"VEC3"
		},
		{
			"bufferView":13,
			"componentType":5126,
			"count":258,
			"type":"VEC2"
		}
	],
	"bufferViews":[
		{
			"buffer":0,
			"byteLength":90168,
			"byteOffset":0,
			"target":34962
		},
		{
			"buffer":0,
			"byteLength":90168,
			"byteOffset":90168,
			"target":34962
		},
		{
			"buffer":0,
			"byteLength":60112,
			"byteOffset":180336,
			"target":34962
		},
		{
			"buffer":0,
			"byteLength":83088,
			"byteOffset":240448,
			"target":34963
		},
		{
			"buffer":0,
			"byteLength":3096,
			"byteOffset":323536,
			"target":34962
		},
		{
			"buffer":0,
			"byteLength":3096,
			"byteOffset":326632,
			"target":34962
		},
		{
			"buffer":0,
			"byteLength":2064,
			"byteOffset":329728,
			"target":34962
		},
		{
			"buffer":0,
			"byteLength":1536,
			"byteOffset":331792,
			"target":34963
		},
		{
			"buffer":0,
			"byteLength":3096,
			"byteOffset":333328,
			"target":34962
		},
		{
			"buffer":0,
			"byteLength":3096,
			"byteOffset":336424,
			"target":34962
		},
		{
			"buffer":0,
			"byteLength":2064,
			"byteOffset":339520,
			"target":34962
		},
		{
			"buffer":0,
			"byteLength":3096,
			"byteOffset":341584,
			"target":34962
		},
		{
			"buffer":0,
			"byteLength":3096,
			"byteOffset":344680,
			"target":34962
		},
		{
			"buffer":0,
			"byteLength":2064,
			"byteOffset":347776,
			"target":34962
		}
	],
	"buffers":[
		{
			"byteLength":349840,
			"uri":"deneme3.bin"
		}
	]
}
