{
	"asset":{
		"generator":"Khronos glTF Blender I/O v5.1.18",
		"version":"2.0"
	},
	"scene":0,
	"scenes":[
		{
			"name":"Scene",
			"nodes":[
				0,
				1,
				2,
				3,
				4,
				5,
				6,
				7,
				8,
				9,
				10,
				11,
				12,
				13,
				14,
				15,
				16,
				17,
				18
			]
		}
	],
	"nodes":[
		{
			"mesh":0,
			"name":"Cylinder.003",
			"scale":[
				1,
				0.551343560218811,
				1
			],
			"translation":[
				0.23544150590896606,
				0.01931210421025753,
				0
			]
		},
		{
			"mesh":1,
			"name":"tepsi"
		},
		{
			"mesh":2,
			"name":"bolt_and_nut.003",
			"rotation":[
				0.7071068286895752,
				0,
				0,
				0.7071068286895752
			],
			"scale":[
				0.00013354732072912157,
				0.00013354732072912157,
				0.00013354732072912157
			],
			"translation":[
				0.2351960688829422,
				0.033565960824489594,
				0.0001955786719918251
			]
		},
		{
			"mesh":3,
			"name":"bolt_and_nut",
			"rotation":[
				0.7071068286895752,
				0,
				0,
				0.7071068286895752
			],
			"scale":[
				0.00013354732072912157,
				0.00013354732072912157,
				0.00013354732072912157
			],
			"translation":[
				-3.583988291211426e-05,
				0.027002550661563873,
				0.0001955786719918251
			]
		},
		{
			"mesh":4,
			"name":"ballbearing.001",
			"rotation":[
				0,
				0,
				-0.7071068286895752,
				0.7071068286895752
			],
			"scale":[
				0.0002188638027291745,
				0.0002188638027291745,
				0.0002188638027291745
			],
			"translation":[
				0.23523390293121338,
				0.010027026757597923,
				0
			]
		},
		{
			"mesh":5,
			"name":"bolt_and_nut.004",
			"rotation":[
				0.7071068286895752,
				0,
				0,
				0.7071068286895752
			],
			"scale":[
				0.00013354732072912157,
				0.00013354732072912157,
				0.00013354732072912157
			],
			"translation":[
				-0.23615117371082306,
				0.033565960824489594,
				0.0001955786719918251
			]
		},
		{
			"mesh":6,
			"name":"bolt_and_nut.005",
			"rotation":[
				0.7071068286895752,
				0,
				0,
				0.7071068286895752
			],
			"scale":[
				0.00013354732072912157,
				0.00013354732072912157,
				0.00013354732072912157
			],
			"translation":[
				-0.23615117371082306,
				0.0023088380694389343,
				0.0001955786719918251
			]
		},
		{
			"mesh":7,
			"name":"Cylinder.004",
			"rotation":[
				0,
				0,
				-0.7071068286895752,
				0.7071068286895752
			],
			"scale":[
				4.149090766906738,
				2.3633415699005127,
				4.149090766906738
			],
			"translation":[
				0.11359568685293198,
				0.018456872552633286,
				0
			]
		},
		{
			"mesh":8,
			"name":"Cylinder.005",
			"rotation":[
				0,
				0,
				-0.7071068286895752,
				0.7071068286895752
			],
			"scale":[
				4.149090766906738,
				2.3633415699005127,
				4.149090766906738
			],
			"translation":[
				-0.11510399729013443,
				0.018456872552633286,
				0
			]
		},
		{
			"mesh":9,
			"name":"bolt_and_nut.006",
			"rotation":[
				0.7071068286895752,
				0,
				0,
				0.7071068286895752
			],
			"scale":[
				0.00013354732072912157,
				0.00013354732072912157,
				0.00013354732072912157
			],
			"translation":[
				0.2351960688829422,
				0.0023088380694389343,
				0.0001955786719918251
			]
		},
		{
			"mesh":10,
			"name":"ballbearing.004",
			"rotation":[
				0,
				0,
				-0.7071068286895752,
				0.7071068286895752
			],
			"scale":[
				0.0002188638027291745,
				0.0002188638027291745,
				0.0002188638027291745
			],
			"translation":[
				0.23523390293121338,
				0.02719264291226864,
				0
			]
		},
		{
			"mesh":11,
			"name":"mud",
			"scale":[
				0.9571151733398438,
				0.17281192541122437,
				0.9571151733398438
			],
			"translation":[
				0,
				-0.019849123433232307,
				0
			]
		},
		{
			"mesh":12,
			"name":"Cylinder"
		},
		{
			"mesh":13,
			"name":"Cylinder.002",
			"scale":[
				1,
				0.551343560218811,
				1
			],
			"translation":[
				-0.23592007160186768,
				0.01931210421025753,
				0
			]
		},
		{
			"mesh":14,
			"name":"ballbearing.003",
			"rotation":[
				0,
				0,
				-0.7071068286895752,
				0.7071068286895752
			],
			"scale":[
				0.0002188638027291745,
				0.0002188638027291745,
				0.0002188638027291745
			],
			"translation":[
				-0.23571915924549103,
				0.02719264291226864,
				0
			]
		},
		{
			"mesh":15,
			"name":"ballbearing",
			"rotation":[
				0,
				0,
				-0.7071068286895752,
				0.7071068286895752
			],
			"scale":[
				0.0002188638027291745,
				0.0002188638027291745,
				0.0002188638027291745
			],
			"translation":[
				0,
				0.010419035330414772,
				0
			]
		},
		{
			"mesh":16,
			"name":"Cylinder.001",
			"rotation":[
				0,
				0,
				-0.7071068286895752,
				0.7071068286895752
			],
			"scale":[
				1,
				6.140530586242676,
				1
			],
			"translation":[
				0,
				0.01882770098745823,
				0
			]
		},
		{
			"mesh":17,
			"name":"bolt_and_nut.002",
			"rotation":[
				0.7071068286895752,
				0,
				0,
				0.7071068286895752
			],
			"scale":[
				0.00013354732072912157,
				0.00013354732072912157,
				0.00013354732072912157
			],
			"translation":[
				-3.583988291211426e-05,
				0.0018454623641446233,
				0.0001955786719918251
			]
		},
		{
			"mesh":18,
			"name":"ballbearing.002",
			"rotation":[
				0,
				0,
				-0.7071068286895752,
				0.7071068286895752
			],
			"scale":[
				0.0002188638027291745,
				0.0002188638027291745,
				0.0002188638027291745
			],
			"translation":[
				-0.23571915924549103,
				0.010027026757597923,
				0
			]
		}
	],
	"materials":[
		{
			"doubleSided":true,
			"name":"metal.003",
			"pbrMetallicRoughness":{
				"baseColorFactor":[
					0.5881999731063843,
					0.5881999731063843,
					0.5881999731063843,
					1
				],
				"metallicRoughnessTexture":{
					"index":0
				},
				"roughnessFactor":0.7354248762130737
			}
		},
		{
			"doubleSided":true,
			"name":"metal",
			"pbrMetallicRoughness":{
				"baseColorFactor":[
					0.5881999731063843,
					0.5881999731063843,
					0.5881999731063843,
					1
				],
				"metallicRoughnessTexture":{
					"index":1
				},
				"roughnessFactor":0.7354248762130737
			}
		},
		{
			"doubleSided":true,
			"name":"metal.004",
			"pbrMetallicRoughness":{
				"baseColorFactor":[
					0.5881999731063843,
					0.5881999731063843,
					0.5881999731063843,
					1
				],
				"metallicRoughnessTexture":{
					"index":2
				},
				"roughnessFactor":0.7354248762130737
			}
		},
		{
			"doubleSided":true,
			"name":"metal.005",
			"pbrMetallicRoughness":{
				"baseColorFactor":[
					0.5881999731063843,
					0.5881999731063843,
					0.5881999731063843,
					1
				],
				"metallicRoughnessTexture":{
					"index":3
				},
				"roughnessFactor":0.7354248762130737
			}
		},
		{
			"doubleSided":true,
			"name":"metal.006",
			"pbrMetallicRoughness":{
				"baseColorFactor":[
					0.5881999731063843,
					0.5881999731063843,
					0.5881999731063843,
					1
				],
				"metallicRoughnessTexture":{
					"index":4
				},
				"roughnessFactor":0.7354248762130737
			}
		},
		{
			"doubleSided":true,
			"name":"metal.002",
			"pbrMetallicRoughness":{
				"baseColorFactor":[
					0.5881999731063843,
					0.5881999731063843,
					0.5881999731063843,
					1
				],
				"metallicRoughnessTexture":{
					"index":5
				},
				"roughnessFactor":0.7354248762130737
			}
		}
	],
	"meshes":[
		{
			"name":"Cylinder.005",
			"primitives":[
				{
					"attributes":{
						"POSITION":0,
						"NORMAL":1,
						"TEXCOORD_0":2
					},
					"indices":3
				}
			]
		},
		{
			"name":"Cylinder",
			"primitives":[
				{
					"attributes":{
						"POSITION":4,
						"NORMAL":5,
						"TEXCOORD_0":6
					},
					"indices":7
				}
			]
		},
		{
			"name":"bolt_and_nut.003",
			"primitives":[
				{
					"attributes":{
						"POSITION":8,
						"NORMAL":9,
						"TEXCOORD_0":10
					},
					"indices":11,
					"material":0
				}
			]
		},
		{
			"name":"bolt_and_nut",
			"primitives":[
				{
					"attributes":{
						"POSITION":12,
						"NORMAL":13,
						"TEXCOORD_0":14
					},
					"indices":11,
					"material":1
				}
			]
		},
		{
			"name":"ballbearing.001",
			"primitives":[
				{
					"attributes":{
						"POSITION":15,
						"NORMAL":16
					},
					"indices":17
				}
			]
		},
		{
			"name":"bolt_and_nut.004",
			"primitives":[
				{
					"attributes":{
						"POSITION":18,
						"NORMAL":19,
						"TEXCOORD_0":20
					},
					"indices":11,
					"material":2
				}
			]
		},
		{
			"name":"bolt_and_nut.005",
			"primitives":[
				{
					"attributes":{
						"POSITION":21,
						"NORMAL":22,
						"TEXCOORD_0":23
					},
					"indices":11,
					"material":3
				}
			]
		},
		{
			"name":"Cylinder.008",
			"primitives":[
				{
					"attributes":{
						"POSITION":24,
						"NORMAL":25,
						"TEXCOORD_0":26
					},
					"indices":3
				}
			]
		},
		{
			"name":"Cylinder.007",
			"primitives":[
				{
					"attributes":{
						"POSITION":27,
						"NORMAL":28,
						"TEXCOORD_0":29
					},
					"indices":3
				}
			]
		},
		{
			"name":"bolt_and_nut.006",
			"primitives":[
				{
					"attributes":{
						"POSITION":30,
						"NORMAL":31,
						"TEXCOORD_0":32
					},
					"indices":11,
					"material":4
				}
			]
		},
		{
			"name":"ballbearing.004",
			"primitives":[
				{
					"attributes":{
						"POSITION":33,
						"NORMAL":34
					},
					"indices":17
				}
			]
		},
		{
			"name":"Cylinder.001",
			"primitives":[
				{
					"attributes":{
						"POSITION":35,
						"NORMAL":36,
						"TEXCOORD_0":37
					},
					"indices":3
				}
			]
		},
		{
			"name":"Cylinder.002",
			"primitives":[
				{
					"attributes":{
						"POSITION":38,
						"NORMAL":39,
						"TEXCOORD_0":40
					},
					"indices":3
				}
			]
		},
		{
			"name":"Cylinder.004",
			"primitives":[
				{
					"attributes":{
						"POSITION":41,
						"NORMAL":42,
						"TEXCOORD_0":43
					},
					"indices":3
				}
			]
		},
		{
			"name":"ballbearing.003",
			"primitives":[
				{
					"attributes":{
						"POSITION":44,
						"NORMAL":45
					},
					"indices":17
				}
			]
		},
		{
			"name":"ballbearing",
			"primitives":[
				{
					"attributes":{
						"POSITION":46,
						"NORMAL":47
					},
					"indices":48
				}
			]
		},
		{
			"name":"Cylinder.003",
			"primitives":[
				{
					"attributes":{
						"POSITION":49,
						"NORMAL":50,
						"TEXCOORD_0":51
					},
					"indices":3
				}
			]
		},
		{
			"name":"bolt_and_nut.002",
			"primitives":[
				{
					"attributes":{
						"POSITION":52,
						"NORMAL":53,
						"TEXCOORD_0":54
					},
					"indices":11,
					"material":5
				}
			]
		},
		{
			"name":"ballbearing.002",
			"primitives":[
				{
					"attributes":{
						"POSITION":55,
						"NORMAL":56
					},
					"indices":17
				}
			]
		}
	],
	"textures":[
		{
			"sampler":0,
			"source":0
		},
		{
			"sampler":0,
			"source":0
		},
		{
			"sampler":0,
			"source":0
		},
		{
			"sampler":0,
			"source":0
		},
		{
			"sampler":0,
			"source":0
		},
		{
			"sampler":0,
			"source":0
		}
	],
	"images":[
		{
			"mimeType":"image/png",
			"name":"Image",
			"uri":"Image.png"
		}
	],
	"accessors":[
		{
			"bufferView":0,
			"componentType":5126,
			"count":384,
			"max":[
				0.006000000052154064,
				0.03999999910593033,
				0.006000000052154064
			],
			"min":[
				-0.006000000052154064,
				-0.03999999910593033,
				-0.006000000052154064
			],
			"type":"VEC3"
		},
		{
			"bufferView":1,
			"componentType":5126,
			"count":384,
			"type":"VEC3"
		},
		{
			"bufferView":2,
			"componentType":5126,
			"count":384,
			"type":"VEC2"
		},
		{
			"bufferView":3,
			"componentType":5123,
			"count":756,
			"type":"SCALAR"
		},
		{
			"bufferView":4,
			"componentType":5126,
			"count":170628,
			"max":[
				0.2748752534389496,
				0.0400751568377018,
				0.2748752534389496
			],
			"min":[
				-0.2748752534389496,
				-0.0400000736117363,
				-0.2748752534389496
			],
			"type":"VEC3"
		},
		{
			"bufferView":5,
			"componentType":5126,
			"count":170628,
			"type":"VEC3"
		},
		{
			"bufferView":6,
			"componentType":5126,
			"count":170628,
			"type":"VEC2"
		},
		{
			"bufferView":7,
			"componentType":5125,
			"count":724992,
			"type":"SCALAR"
		},
		{
			"bufferView":8,
			"componentType":5126,
			"count":5944,
			"max":[
				83.34371948242188,
				73.56826782226562,
				31.213232040405273
			],
			"min":[
				-83.6205825805664,
				-73.65603637695312,
				-30.444469451904297
			],
			"type":"VEC3"
		},
		{
			"bufferView":9,
			"componentType":5126,
			"count":5944,
			"type":"VEC3"
		},
		{
			"bufferView":10,
			"componentType":5126,
			"count":5944,
			"type":"VEC2"
		},
		{
			"bufferView":11,
			"componentType":5123,
			"count":27432,
			"type":"SCALAR"
		},
		{
			"bufferView":12,
			"componentType":5126,
			"count":5944,
			"max":[
				83.34371948242188,
				73.56826782226562,
				31.213232040405273
			],
			"min":[
				-83.6205825805664,
				-73.65603637695312,
				-30.444469451904297
			],
			"type":"VEC3"
		},
		{
			"bufferView":13,
			"componentType":5126,
			"count":5944,
			"type":"VEC3"
		},
		{
			"bufferView":14,
			"componentType":5126,
			"count":5944,
			"type":"VEC2"
		},
		{
			"bufferView":15,
			"componentType":5126,
			"count":217074,
			"max":[
				15.49998664855957,
				64.98866271972656,
				65.0061264038086
			],
			"min":[
				-15.500014305114746,
				-64.98915100097656,
				-64.94977569580078
			],
			"type":"VEC3"
		},
		{
			"bufferView":16,
			"componentType":5126,
			"count":217074,
			"type":"VEC3"
		},
		{
			"bufferView":17,
			"componentType":5125,
			"count":332004,
			"type":"SCALAR"
		},
		{
			"bufferView":18,
			"componentType":5126,
			"count":5944,
			"max":[
				83.34371948242188,
				73.56826782226562,
				31.213232040405273
			],
			"min":[
				-83.6205825805664,
				-73.65603637695312,
				-30.444469451904297
			],
			"type":"VEC3"
		},
		{
			"bufferView":19,
			"componentType":5126,
			"count":5944,
			"type":"VEC3"
		},
		{
			"bufferView":20,
			"componentType":5126,
			"count":5944,
			"type":"VEC2"
		},
		{
			"bufferView":21,
			"componentType":5126,
			"count":5944,
			"max":[
				83.34371948242188,
				73.56826782226562,
				31.213232040405273
			],
			"min":[
				-83.6205825805664,
				-73.65603637695312,
				-30.444469451904297
			],
			"type":"VEC3"
		},
		{
			"bufferView":22,
			"componentType":5126,
			"count":5944,
			"type":"VEC3"
		},
		{
			"bufferView":23,
			"componentType":5126,
			"count":5944,
			"type":"VEC2"
		},
		{
			"bufferView":24,
			"componentType":5126,
			"count":384,
			"max":[
				0.006000000052154064,
				0.03999999910593033,
				0.006000000052154064
			],
			"min":[
				-0.006000000052154064,
				-0.03999999910593033,
				-0.006000000052154064
			],
			"type":"VEC3"
		},
		{
			"bufferView":25,
			"componentType":5126,
			"count":384,
			"type":"VEC3"
		},
		{
			"bufferView":26,
			"componentType":5126,
			"count":384,
			"type":"VEC2"
		},
		{
			"bufferView":27,
			"componentType":5126,
			"count":384,
			"max":[
				0.006000000052154064,
				0.03999999910593033,
				0.006000000052154064
			],
			"min":[
				-0.006000000052154064,
				-0.03999999910593033,
				-0.006000000052154064
			],
			"type":"VEC3"
		},
		{
			"bufferView":28,
			"componentType":5126,
			"count":384,
			"type":"VEC3"
		},
		{
			"bufferView":29,
			"componentType":5126,
			"count":384,
			"type":"VEC2"
		},
		{
			"bufferView":30,
			"componentType":5126,
			"count":5944,
			"max":[
				83.34371948242188,
				73.56826782226562,
				31.213232040405273
			],
			"min":[
				-83.6205825805664,
				-73.65603637695312,
				-30.444469451904297
			],
			"type":"VEC3"
		},
		{
			"bufferView":31,
			"componentType":5126,
			"count":5944,
			"type":"VEC3"
		},
		{
			"bufferView":32,
			"componentType":5126,
			"count":5944,
			"type":"VEC2"
		},
		{
			"bufferView":33,
			"componentType":5126,
			"count":217074,
			"max":[
				15.49998664855957,
				64.98866271972656,
				65.0061264038086
			],
			"min":[
				-15.500014305114746,
				-64.98915100097656,
				-64.94977569580078
			],
			"type":"VEC3"
		},
		{
			"bufferView":34,
			"componentType":5126,
			"count":217074,
			"type":"VEC3"
		},
		{
			"bufferView":35,
			"componentType":5126,
			"count":384,
			"max":[
				0.25999999046325684,
				0.03999999910593033,
				0.25999999046325684
			],
			"min":[
				-0.25999999046325684,
				-0.03999999910593033,
				-0.25999999046325684
			],
			"type":"VEC3"
		},
		{
			"bufferView":36,
			"componentType":5126,
			"count":384,
			"type":"VEC3"
		},
		{
			"bufferView":37,
			"componentType":5126,
			"count":384,
			"type":"VEC2"
		},
		{
			"bufferView":38,
			"componentType":5126,
			"count":384,
			"max":[
				0.006000000052154064,
				0.03999999910593033,
				0.006000000052154064
			],
			"min":[
				-0.006000000052154064,
				-0.03999999910593033,
				-0.006000000052154064
			],
			"type":"VEC3"
		},
		{
			"bufferView":39,
			"componentType":5126,
			"count":384,
			"type":"VEC3"
		},
		{
			"bufferView":40,
			"componentType":5126,
			"count":384,
			"type":"VEC2"
		},
		{
			"bufferView":41,
			"componentType":5126,
			"count":384,
			"max":[
				0.006000000052154064,
				0.03999999910593033,
				0.006000000052154064
			],
			"min":[
				-0.006000000052154064,
				-0.03999999910593033,
				-0.006000000052154064
			],
			"type":"VEC3"
		},
		{
			"bufferView":42,
			"componentType":5126,
			"count":384,
			"type":"VEC3"
		},
		{
			"bufferView":43,
			"componentType":5126,
			"count":384,
			"type":"VEC2"
		},
		{
			"bufferView":44,
			"componentType":5126,
			"count":217074,
			"max":[
				15.49998664855957,
				64.98866271972656,
				65.0061264038086
			],
			"min":[
				-15.500014305114746,
				-64.98915100097656,
				-64.94977569580078
			],
			"type":"VEC3"
		},
		{
			"bufferView":45,
			"componentType":5126,
			"count":217074,
			"type":"VEC3"
		},
		{
			"bufferView":46,
			"componentType":5126,
			"count":217068,
			"max":[
				15.49998664855957,
				64.98866271972656,
				65.0061264038086
			],
			"min":[
				-15.500014305114746,
				-64.98915100097656,
				-64.94977569580078
			],
			"type":"VEC3"
		},
		{
			"bufferView":47,
			"componentType":5126,
			"count":217068,
			"type":"VEC3"
		},
		{
			"bufferView":48,
			"componentType":5125,
			"count":332004,
			"type":"SCALAR"
		},
		{
			"bufferView":49,
			"componentType":5126,
			"count":384,
			"max":[
				0.006000000052154064,
				0.03999999910593033,
				0.006000000052154064
			],
			"min":[
				-0.006000000052154064,
				-0.03999999910593033,
				-0.006000000052154064
			],
			"type":"VEC3"
		},
		{
			"bufferView":50,
			"componentType":5126,
			"count":384,
			"type":"VEC3"
		},
		{
			"bufferView":51,
			"componentType":5126,
			"count":384,
			"type":"VEC2"
		},
		{
			"bufferView":52,
			"componentType":5126,
			"count":5944,
			"max":[
				83.34371948242188,
				73.56826782226562,
				31.213232040405273
			],
			"min":[
				-83.6205825805664,
				-73.65603637695312,
				-30.444469451904297
			],
			"type":"VEC3"
		},
		{
			"bufferView":53,
			"componentType":5126,
			"count":5944,
			"type":"VEC3"
		},
		{
			"bufferView":54,
			"componentType":5126,
			"count":5944,
			"type":"VEC2"
		},
		{
			"bufferView":55,
			"componentType":5126,
			"count":217074,
			"max":[
				15.49998664855957,
				64.98866271972656,
				65.0061264038086
			],
			"min":[
				-15.500014305114746,
				-64.98915100097656,
				-64.94977569580078
			],
			"type":"VEC3"
		},
		{
			"bufferView":56,
			"componentType":5126,
			"count":217074,
			"type":"VEC3"
		}
	],
	"bufferViews":[
		{
			"buffer":0,
			"byteLength":4608,
			"byteOffset":0,
			"target":34962
		},
		{
			"buffer":0,
			"byteLength":4608,
			"byteOffset":4608,
			"target":34962
		},
		{
			"buffer":0,
			"byteLength":3072,
			"byteOffset":9216,
			"target":34962
		},
		{
			"buffer":0,
			"byteLength":1512,
			"byteOffset":12288,
			"target":34963
		},
		{
			"buffer":0,
			"byteLength":2047536,
			"byteOffset":13800,
			"target":34962
		},
		{
			"buffer":0,
			"byteLength":2047536,
			"byteOffset":2061336,
			"target":34962
		},
		{
			"buffer":0,
			"byteLength":1365024,
			"byteOffset":4108872,
			"target":34962
		},
		{
			"buffer":0,
			"byteLength":2899968,
			"byteOffset":5473896,
			"target":34963
		},
		{
			"buffer":0,
			"byteLength":71328,
			"byteOffset":8373864,
			"target":34962
		},
		{
			"buffer":0,
			"byteLength":71328,
			"byteOffset":8445192,
			"target":34962
		},
		{
			"buffer":0,
			"byteLength":47552,
			"byteOffset":8516520,
			"target":34962
		},
		{
			"buffer":0,
			"byteLength":54864,
			"byteOffset":8564072,
			"target":34963
		},
		{
			"buffer":0,
			"byteLength":71328,
			"byteOffset":8618936,
			"target":34962
		},
		{
			"buffer":0,
			"byteLength":71328,
			"byteOffset":8690264,
			"target":34962
		},
		{
			"buffer":0,
			"byteLength":47552,
			"byteOffset":8761592,
			"target":34962
		},
		{
			"buffer":0,
			"byteLength":2604888,
			"byteOffset":8809144,
			"target":34962
		},
		{
			"buffer":0,
			"byteLength":2604888,
			"byteOffset":11414032,
			"target":34962
		},
		{
			"buffer":0,
			"byteLength":1328016,
			"byteOffset":14018920,
			"target":34963
		},
		{
			"buffer":0,
			"byteLength":71328,
			"byteOffset":15346936,
			"target":34962
		},
		{
			"buffer":0,
			"byteLength":71328,
			"byteOffset":15418264,
			"target":34962
		},
		{
			"buffer":0,
			"byteLength":47552,
			"byteOffset":15489592,
			"target":34962
		},
		{
			"buffer":0,
			"byteLength":71328,
			"byteOffset":15537144,
			"target":34962
		},
		{
			"buffer":0,
			"byteLength":71328,
			"byteOffset":15608472,
			"target":34962
		},
		{
			"buffer":0,
			"byteLength":47552,
			"byteOffset":15679800,
			"target":34962
		},
		{
			"buffer":0,
			"byteLength":4608,
			"byteOffset":15727352,
			"target":34962
		},
		{
			"buffer":0,
			"byteLength":4608,
			"byteOffset":15731960,
			"target":34962
		},
		{
			"buffer":0,
			"byteLength":3072,
			"byteOffset":15736568,
			"target":34962
		},
		{
			"buffer":0,
			"byteLength":4608,
			"byteOffset":15739640,
			"target":34962
		},
		{
			"buffer":0,
			"byteLength":4608,
			"byteOffset":15744248,
			"target":34962
		},
		{
			"buffer":0,
			"byteLength":3072,
			"byteOffset":15748856,
			"target":34962
		},
		{
			"buffer":0,
			"byteLength":71328,
			"byteOffset":15751928,
			"target":34962
		},
		{
			"buffer":0,
			"byteLength":71328,
			"byteOffset":15823256,
			"target":34962
		},
		{
			"buffer":0,
			"byteLength":47552,
			"byteOffset":15894584,
			"target":34962
		},
		{
			"buffer":0,
			"byteLength":2604888,
			"byteOffset":15942136,
			"target":34962
		},
		{
			"buffer":0,
			"byteLength":2604888,
			"byteOffset":18547024,
			"target":34962
		},
		{
			"buffer":0,
			"byteLength":4608,
			"byteOffset":21151912,
			"target":34962
		},
		{
			"buffer":0,
			"byteLength":4608,
			"byteOffset":21156520,
			"target":34962
		},
		{
			"buffer":0,
			"byteLength":3072,
			"byteOffset":21161128,
			"target":34962
		},
		{
			"buffer":0,
			"byteLength":4608,
			"byteOffset":21164200,
			"target":34962
		},
		{
			"buffer":0,
			"byteLength":4608,
			"byteOffset":21168808,
			"target":34962
		},
		{
			"buffer":0,
			"byteLength":3072,
			"byteOffset":21173416,
			"target":34962
		},
		{
			"buffer":0,
			"byteLength":4608,
			"byteOffset":21176488,
			"target":34962
		},
		{
			"buffer":0,
			"byteLength":4608,
			"byteOffset":21181096,
			"target":34962
		},
		{
			"buffer":0,
			"byteLength":3072,
			"byteOffset":21185704,
			"target":34962
		},
		{
			"buffer":0,
			"byteLength":2604888,
			"byteOffset":21188776,
			"target":34962
		},
		{
			"buffer":0,
			"byteLength":2604888,
			"byteOffset":23793664,
			"target":34962
		},
		{
			"buffer":0,
			"byteLength":2604816,
			"byteOffset":26398552,
			"target":34962
		},
		{
			"buffer":0,
			"byteLength":2604816,
			"byteOffset":29003368,
			"target":34962
		},
		{
			"buffer":0,
			"byteLength":1328016,
			"byteOffset":31608184,
			"target":34963
		},
		{
			"buffer":0,
			"byteLength":4608,
			"byteOffset":32936200,
			"target":34962
		},
		{
			"buffer":0,
			"byteLength":4608,
			"byteOffset":32940808,
			"target":34962
		},
		{
			"buffer":0,
			"byteLength":3072,
			"byteOffset":32945416,
			"target":34962
		},
		{
			"buffer":0,
			"byteLength":71328,
			"byteOffset":32948488,
			"target":34962
		},
		{
			"buffer":0,
			"byteLength":71328,
			"byteOffset":33019816,
			"target":34962
		},
		{
			"buffer":0,
			"byteLength":47552,
			"byteOffset":33091144,
			"target":34962
		},
		{
			"buffer":0,
			"byteLength":2604888,
			"byteOffset":33138696,
			"target":34962
		},
		{
			"buffer":0,
			"byteLength":2604888,
			"byteOffset":35743584,
			"target":34962
		}
	],
	"samplers":[
		{
			"magFilter":9729,
			"minFilter":9987
		}
	],
	"buffers":[
		{
			"byteLength":38348472,
			"uri":"hayatdonerdeneme2.bin"
		}
	]
}
